<mxfile host="Electron" agent="Mozilla/5.0 (Macintosh; Intel Mac OS X 10_15_7) AppleWebKit/537.36 (KHTML, like Gecko) draw.io/28.0.4 Chrome/138.0.7204.97 Electron/37.2.1 Safari/537.36" version="28.0.4">
  <diagram name="第 1 页" id="szpujHstMAzwFrWQVHxX">
    <mxGraphModel dx="1736" dy="1210" grid="1" gridSize="10" guides="1" tooltips="1" connect="1" arrows="1" fold="1" page="1" pageScale="1" pageWidth="827" pageHeight="1169" math="0" shadow="0">
      <root>
        <mxCell id="0" />
        <mxCell id="1" parent="0" />
        <mxCell id="nwfjTRmZR8LuEWLm_6cH-172" value="" style="rounded=0;whiteSpace=wrap;html=1;" vertex="1" parent="1">
          <mxGeometry x="10" y="60" width="810" height="686" as="geometry" />
        </mxCell>
        <mxCell id="nwfjTRmZR8LuEWLm_6cH-175" value="" style="rounded=0;whiteSpace=wrap;html=1;" vertex="1" parent="1">
          <mxGeometry x="15" y="180" width="800" height="110" as="geometry" />
        </mxCell>
        <mxCell id="nwfjTRmZR8LuEWLm_6cH-171" value="" style="rounded=0;whiteSpace=wrap;html=1;" vertex="1" parent="1">
          <mxGeometry x="10" y="756" width="810" height="400" as="geometry" />
        </mxCell>
        <mxCell id="nwfjTRmZR8LuEWLm_6cH-170" value="" style="rounded=0;whiteSpace=wrap;html=1;" vertex="1" parent="1">
          <mxGeometry x="566" y="1000" width="134" height="138" as="geometry" />
        </mxCell>
        <mxCell id="nwfjTRmZR8LuEWLm_6cH-72" value="" style="rounded=1;whiteSpace=wrap;html=1;fillColor=#bac8d3;strokeColor=#23445d;" vertex="1" parent="1">
          <mxGeometry x="216" y="86" width="270" height="80" as="geometry" />
        </mxCell>
        <mxCell id="nwfjTRmZR8LuEWLm_6cH-71" value="" style="rounded=1;whiteSpace=wrap;html=1;fillColor=#bac8d3;strokeColor=#23445d;" vertex="1" parent="1">
          <mxGeometry x="16" y="296" width="800" height="80" as="geometry" />
        </mxCell>
        <mxCell id="nwfjTRmZR8LuEWLm_6cH-70" value="" style="rounded=1;whiteSpace=wrap;html=1;fillColor=#bac8d3;strokeColor=#23445d;" vertex="1" parent="1">
          <mxGeometry x="216" y="646" width="400" height="80" as="geometry" />
        </mxCell>
        <mxCell id="nwfjTRmZR8LuEWLm_6cH-38" style="edgeStyle=orthogonalEdgeStyle;rounded=0;orthogonalLoop=1;jettySize=auto;html=1;exitX=0.75;exitY=0;exitDx=0;exitDy=0;strokeColor=#4D9900;" edge="1" parent="1" source="nwfjTRmZR8LuEWLm_6cH-1" target="nwfjTRmZR8LuEWLm_6cH-34">
          <mxGeometry relative="1" as="geometry">
            <Array as="points">
              <mxPoint x="306" y="656" />
              <mxPoint x="306" y="636" />
              <mxPoint x="406" y="636" />
            </Array>
          </mxGeometry>
        </mxCell>
        <mxCell id="nwfjTRmZR8LuEWLm_6cH-1" value="&lt;b&gt;actuator_node&lt;/b&gt;" style="rounded=1;whiteSpace=wrap;html=1;fillColor=#b0e3e6;strokeColor=#0e8088;" vertex="1" parent="1">
          <mxGeometry x="226" y="656" width="120" height="60" as="geometry" />
        </mxCell>
        <mxCell id="nwfjTRmZR8LuEWLm_6cH-46" style="edgeStyle=orthogonalEdgeStyle;rounded=0;orthogonalLoop=1;jettySize=auto;html=1;entryX=0.535;entryY=1.005;entryDx=0;entryDy=0;entryPerimeter=0;strokeColor=#6666FF;" edge="1" parent="1" source="nwfjTRmZR8LuEWLm_6cH-2" target="nwfjTRmZR8LuEWLm_6cH-45">
          <mxGeometry relative="1" as="geometry">
            <Array as="points">
              <mxPoint x="416" y="636" />
              <mxPoint x="506" y="636" />
              <mxPoint x="506" y="576" />
            </Array>
          </mxGeometry>
        </mxCell>
        <mxCell id="nwfjTRmZR8LuEWLm_6cH-2" value="&lt;b&gt;imu_node&lt;/b&gt;" style="rounded=1;whiteSpace=wrap;html=1;fillColor=#b0e3e6;strokeColor=#0e8088;" vertex="1" parent="1">
          <mxGeometry x="356" y="656" width="120" height="60" as="geometry" />
        </mxCell>
        <mxCell id="nwfjTRmZR8LuEWLm_6cH-51" style="edgeStyle=orthogonalEdgeStyle;rounded=0;orthogonalLoop=1;jettySize=auto;html=1;strokeColor=#007FFF;" edge="1" parent="1" source="nwfjTRmZR8LuEWLm_6cH-3" target="nwfjTRmZR8LuEWLm_6cH-49">
          <mxGeometry relative="1" as="geometry">
            <Array as="points">
              <mxPoint x="546" y="636" />
              <mxPoint x="586" y="636" />
            </Array>
          </mxGeometry>
        </mxCell>
        <mxCell id="nwfjTRmZR8LuEWLm_6cH-3" value="&lt;b&gt;rplidar offical ros2 node&lt;/b&gt;" style="rounded=1;whiteSpace=wrap;html=1;fillColor=#d0cee2;strokeColor=#56517e;" vertex="1" parent="1">
          <mxGeometry x="486" y="656" width="120" height="60" as="geometry" />
        </mxCell>
        <mxCell id="nwfjTRmZR8LuEWLm_6cH-20" style="edgeStyle=orthogonalEdgeStyle;rounded=0;orthogonalLoop=1;jettySize=auto;html=1;entryX=0.5;entryY=0;entryDx=0;entryDy=0;exitX=0.205;exitY=1.003;exitDx=0;exitDy=0;exitPerimeter=0;strokeColor=#FF66B3;" edge="1" parent="1" source="nwfjTRmZR8LuEWLm_6cH-4" target="nwfjTRmZR8LuEWLm_6cH-12">
          <mxGeometry relative="1" as="geometry">
            <Array as="points">
              <mxPoint x="56" y="406" />
              <mxPoint x="101" y="406" />
            </Array>
          </mxGeometry>
        </mxCell>
        <mxCell id="nwfjTRmZR8LuEWLm_6cH-21" style="edgeStyle=orthogonalEdgeStyle;rounded=0;orthogonalLoop=1;jettySize=auto;html=1;entryX=0.479;entryY=-0.008;entryDx=0;entryDy=0;strokeColor=#006666;entryPerimeter=0;" edge="1" parent="1" source="nwfjTRmZR8LuEWLm_6cH-4" target="nwfjTRmZR8LuEWLm_6cH-11">
          <mxGeometry relative="1" as="geometry">
            <Array as="points">
              <mxPoint x="91" y="396" />
              <mxPoint x="250" y="396" />
              <mxPoint x="250" y="456" />
            </Array>
          </mxGeometry>
        </mxCell>
        <mxCell id="nwfjTRmZR8LuEWLm_6cH-29" style="edgeStyle=orthogonalEdgeStyle;rounded=0;orthogonalLoop=1;jettySize=auto;html=1;exitX=0.25;exitY=1;exitDx=0;exitDy=0;entryX=0.47;entryY=0.004;entryDx=0;entryDy=0;entryPerimeter=0;strokeColor=#4D9900;" edge="1" parent="1" target="nwfjTRmZR8LuEWLm_6cH-14">
          <mxGeometry relative="1" as="geometry">
            <mxPoint x="329.4799999999999" y="476" as="targetPoint" />
            <mxPoint x="61" y="364.96000000000004" as="sourcePoint" />
            <Array as="points">
              <mxPoint x="66" y="365" />
              <mxPoint x="66" y="436" />
              <mxPoint x="336" y="436" />
              <mxPoint x="336" y="516" />
            </Array>
          </mxGeometry>
        </mxCell>
        <mxCell id="nwfjTRmZR8LuEWLm_6cH-4" value="chassis_control" style="rounded=1;whiteSpace=wrap;html=1;fillColor=#b0e3e6;strokeColor=#0e8088;" vertex="1" parent="1">
          <mxGeometry x="31" y="306" width="120" height="60" as="geometry" />
        </mxCell>
        <mxCell id="nwfjTRmZR8LuEWLm_6cH-5" value="gimbal_control" style="rounded=1;whiteSpace=wrap;html=1;fillColor=#b0e3e6;strokeColor=#0e8088;" vertex="1" parent="1">
          <mxGeometry x="161" y="306" width="120" height="60" as="geometry" />
        </mxCell>
        <mxCell id="nwfjTRmZR8LuEWLm_6cH-6" value="imu_processing" style="rounded=1;whiteSpace=wrap;html=1;fillColor=#b0e3e6;strokeColor=#0e8088;" vertex="1" parent="1">
          <mxGeometry x="421" y="306" width="120" height="60" as="geometry" />
        </mxCell>
        <mxCell id="nwfjTRmZR8LuEWLm_6cH-25" style="edgeStyle=orthogonalEdgeStyle;rounded=0;orthogonalLoop=1;jettySize=auto;html=1;entryX=0.5;entryY=0;entryDx=0;entryDy=0;strokeColor=#FFCC99;" edge="1" parent="1" source="nwfjTRmZR8LuEWLm_6cH-7" target="nwfjTRmZR8LuEWLm_6cH-13">
          <mxGeometry relative="1" as="geometry">
            <Array as="points">
              <mxPoint x="352" y="386" />
              <mxPoint x="182" y="386" />
            </Array>
          </mxGeometry>
        </mxCell>
        <mxCell id="nwfjTRmZR8LuEWLm_6cH-7" value="&lt;b&gt;joystick_input&lt;/b&gt;" style="rounded=1;whiteSpace=wrap;html=1;fillColor=#fad7ac;strokeColor=#b46504;" vertex="1" parent="1">
          <mxGeometry x="292" y="306" width="120" height="60" as="geometry" />
        </mxCell>
        <mxCell id="nwfjTRmZR8LuEWLm_6cH-8" value="lidar_processing" style="rounded=1;whiteSpace=wrap;html=1;fillColor=#b0e3e6;strokeColor=#0e8088;" vertex="1" parent="1">
          <mxGeometry x="552" y="306" width="120" height="60" as="geometry" />
        </mxCell>
        <mxCell id="nwfjTRmZR8LuEWLm_6cH-62" style="edgeStyle=orthogonalEdgeStyle;rounded=0;orthogonalLoop=1;jettySize=auto;html=1;entryX=0.42;entryY=0.018;entryDx=0;entryDy=0;strokeColor=#66CC00;entryPerimeter=0;" edge="1" parent="1" source="nwfjTRmZR8LuEWLm_6cH-9" target="nwfjTRmZR8LuEWLm_6cH-61">
          <mxGeometry relative="1" as="geometry">
            <Array as="points">
              <mxPoint x="280" y="206" />
              <mxPoint x="419" y="206" />
            </Array>
          </mxGeometry>
        </mxCell>
        <mxCell id="nwfjTRmZR8LuEWLm_6cH-9" value="odometry_generator" style="rounded=1;whiteSpace=wrap;html=1;fillColor=#b0e3e6;strokeColor=#0e8088;" vertex="1" parent="1">
          <mxGeometry x="226" y="96" width="120" height="60" as="geometry" />
        </mxCell>
        <mxCell id="nwfjTRmZR8LuEWLm_6cH-23" style="edgeStyle=orthogonalEdgeStyle;rounded=0;orthogonalLoop=1;jettySize=auto;html=1;entryX=0.006;entryY=0.823;entryDx=0;entryDy=0;entryPerimeter=0;strokeColor=#006666;" edge="1" parent="1" source="nwfjTRmZR8LuEWLm_6cH-11" target="nwfjTRmZR8LuEWLm_6cH-1">
          <mxGeometry relative="1" as="geometry">
            <mxPoint x="186" y="686" as="targetPoint" />
            <Array as="points">
              <mxPoint x="246" y="516" />
              <mxPoint x="46" y="516" />
              <mxPoint x="46" y="706" />
              <mxPoint x="186" y="706" />
            </Array>
          </mxGeometry>
        </mxCell>
        <mxCell id="nwfjTRmZR8LuEWLm_6cH-11" value="&lt;font style=&quot;color: rgb(0, 153, 153);&quot;&gt;goal_chassis&lt;/font&gt;" style="ellipse;whiteSpace=wrap;html=1;fillColor=#bac8d3;strokeColor=#23445d;" vertex="1" parent="1">
          <mxGeometry x="192" y="456" width="120" height="40" as="geometry" />
        </mxCell>
        <mxCell id="nwfjTRmZR8LuEWLm_6cH-19" style="edgeStyle=orthogonalEdgeStyle;rounded=0;orthogonalLoop=1;jettySize=auto;html=1;exitX=0.013;exitY=0.542;exitDx=0;exitDy=0;exitPerimeter=0;entryX=0;entryY=0.5;entryDx=0;entryDy=0;strokeColor=#FF66B3;" edge="1" parent="1" source="nwfjTRmZR8LuEWLm_6cH-12" target="nwfjTRmZR8LuEWLm_6cH-1">
          <mxGeometry relative="1" as="geometry">
            <mxPoint x="196" y="646" as="targetPoint" />
            <Array as="points">
              <mxPoint x="43" y="476" />
              <mxPoint x="36" y="476" />
              <mxPoint x="36" y="686" />
            </Array>
          </mxGeometry>
        </mxCell>
        <mxCell id="nwfjTRmZR8LuEWLm_6cH-12" value="&lt;font style=&quot;color: rgb(255, 102, 179);&quot;&gt;commend_chassis&lt;/font&gt;" style="ellipse;whiteSpace=wrap;html=1;fillColor=#bac8d3;strokeColor=#23445d;" vertex="1" parent="1">
          <mxGeometry x="41" y="456" width="120" height="40" as="geometry" />
        </mxCell>
        <mxCell id="nwfjTRmZR8LuEWLm_6cH-26" style="edgeStyle=orthogonalEdgeStyle;rounded=0;orthogonalLoop=1;jettySize=auto;html=1;exitX=0.415;exitY=0.025;exitDx=0;exitDy=0;entryX=0.75;entryY=1;entryDx=0;entryDy=0;exitPerimeter=0;strokeColor=#FFCC99;" edge="1" parent="1" source="nwfjTRmZR8LuEWLm_6cH-13" target="nwfjTRmZR8LuEWLm_6cH-4">
          <mxGeometry relative="1" as="geometry">
            <Array as="points">
              <mxPoint x="172" y="406" />
              <mxPoint x="121" y="406" />
            </Array>
          </mxGeometry>
        </mxCell>
        <mxCell id="nwfjTRmZR8LuEWLm_6cH-13" value="&lt;font style=&quot;color: rgb(255, 230, 204);&quot;&gt;robot_controller&lt;/font&gt;" style="ellipse;whiteSpace=wrap;html=1;fillColor=#bac8d3;strokeColor=#23445d;" vertex="1" parent="1">
          <mxGeometry x="122" y="536" width="120" height="40" as="geometry" />
        </mxCell>
        <mxCell id="nwfjTRmZR8LuEWLm_6cH-14" value="&lt;font style=&quot;color: rgb(77, 153, 0);&quot;&gt;gimbal_manual_controller&lt;/font&gt;" style="ellipse;whiteSpace=wrap;html=1;fillColor=#bac8d3;strokeColor=#23445d;" vertex="1" parent="1">
          <mxGeometry x="261" y="536" width="160" height="40" as="geometry" />
        </mxCell>
        <mxCell id="nwfjTRmZR8LuEWLm_6cH-27" style="edgeStyle=orthogonalEdgeStyle;rounded=0;orthogonalLoop=1;jettySize=auto;html=1;strokeColor=#4D9900;entryX=0.837;entryY=1.004;entryDx=0;entryDy=0;entryPerimeter=0;" edge="1" parent="1" source="nwfjTRmZR8LuEWLm_6cH-14" target="nwfjTRmZR8LuEWLm_6cH-5">
          <mxGeometry relative="1" as="geometry">
            <Array as="points">
              <mxPoint x="346" y="396" />
              <mxPoint x="261" y="396" />
              <mxPoint x="261" y="366" />
            </Array>
          </mxGeometry>
        </mxCell>
        <mxCell id="nwfjTRmZR8LuEWLm_6cH-31" value="&lt;font style=&quot;color: rgb(204, 255, 255);&quot;&gt;feedback_twist_chassis&lt;/font&gt;" style="ellipse;whiteSpace=wrap;html=1;fillColor=#bac8d3;strokeColor=#23445d;" vertex="1" parent="1">
          <mxGeometry x="356" y="456" width="150" height="40" as="geometry" />
        </mxCell>
        <mxCell id="nwfjTRmZR8LuEWLm_6cH-32" style="edgeStyle=orthogonalEdgeStyle;rounded=0;orthogonalLoop=1;jettySize=auto;html=1;strokeColor=#00CCCC;" edge="1" parent="1" source="nwfjTRmZR8LuEWLm_6cH-1">
          <mxGeometry relative="1" as="geometry">
            <mxPoint x="422" y="496" as="targetPoint" />
            <Array as="points">
              <mxPoint x="296" y="626" />
              <mxPoint x="576" y="626" />
              <mxPoint x="576" y="516" />
              <mxPoint x="422" y="516" />
            </Array>
          </mxGeometry>
        </mxCell>
        <mxCell id="nwfjTRmZR8LuEWLm_6cH-33" style="edgeStyle=orthogonalEdgeStyle;rounded=0;orthogonalLoop=1;jettySize=auto;html=1;entryX=0.826;entryY=0.998;entryDx=0;entryDy=0;entryPerimeter=0;strokeColor=#00CCCC;" edge="1" parent="1" source="nwfjTRmZR8LuEWLm_6cH-31" target="nwfjTRmZR8LuEWLm_6cH-4">
          <mxGeometry relative="1" as="geometry">
            <Array as="points">
              <mxPoint x="411" y="416" />
              <mxPoint x="130" y="416" />
            </Array>
          </mxGeometry>
        </mxCell>
        <mxCell id="nwfjTRmZR8LuEWLm_6cH-35" style="edgeStyle=orthogonalEdgeStyle;rounded=0;orthogonalLoop=1;jettySize=auto;html=1;entryX=0.545;entryY=1;entryDx=0;entryDy=0;exitX=0.735;exitY=0.07;exitDx=0;exitDy=0;exitPerimeter=0;entryPerimeter=0;strokeColor=#4D9900;" edge="1" parent="1" source="nwfjTRmZR8LuEWLm_6cH-34" target="nwfjTRmZR8LuEWLm_6cH-5">
          <mxGeometry relative="1" as="geometry">
            <Array as="points">
              <mxPoint x="436" y="559" />
              <mxPoint x="436" y="559" />
              <mxPoint x="436" y="506" />
              <mxPoint x="512" y="506" />
              <mxPoint x="512" y="426" />
              <mxPoint x="226" y="426" />
            </Array>
          </mxGeometry>
        </mxCell>
        <mxCell id="nwfjTRmZR8LuEWLm_6cH-34" value="&lt;font style=&quot;color: rgb(77, 153, 0);&quot;&gt;feedback_vector_gimbal&lt;/font&gt;" style="ellipse;whiteSpace=wrap;html=1;fillColor=#bac8d3;strokeColor=#23445d;" vertex="1" parent="1">
          <mxGeometry x="326" y="576" width="150" height="40" as="geometry" />
        </mxCell>
        <mxCell id="nwfjTRmZR8LuEWLm_6cH-36" value="&lt;font style=&quot;color: rgb(77, 153, 0);&quot;&gt;goal_gimbal&lt;/font&gt;" style="ellipse;whiteSpace=wrap;html=1;fillColor=#bac8d3;strokeColor=#23445d;" vertex="1" parent="1">
          <mxGeometry x="192" y="576" width="120" height="40" as="geometry" />
        </mxCell>
        <mxCell id="nwfjTRmZR8LuEWLm_6cH-41" style="edgeStyle=orthogonalEdgeStyle;rounded=0;orthogonalLoop=1;jettySize=auto;html=1;exitX=0.701;exitY=0.96;exitDx=0;exitDy=0;exitPerimeter=0;strokeColor=#4D9900;" edge="1" parent="1" source="nwfjTRmZR8LuEWLm_6cH-36">
          <mxGeometry relative="1" as="geometry">
            <mxPoint x="276" y="656" as="targetPoint" />
            <Array as="points">
              <mxPoint x="276" y="656" />
            </Array>
          </mxGeometry>
        </mxCell>
        <mxCell id="nwfjTRmZR8LuEWLm_6cH-42" value="&lt;font style=&quot;color: rgb(255, 102, 179);&quot;&gt;commend_gimbal&lt;/font&gt;" style="ellipse;whiteSpace=wrap;html=1;fillColor=#bac8d3;strokeColor=#23445d;" vertex="1" parent="1">
          <mxGeometry x="62" y="576" width="120" height="40" as="geometry" />
        </mxCell>
        <mxCell id="nwfjTRmZR8LuEWLm_6cH-47" style="edgeStyle=orthogonalEdgeStyle;rounded=0;orthogonalLoop=1;jettySize=auto;html=1;strokeColor=#6666FF;" edge="1" parent="1" source="nwfjTRmZR8LuEWLm_6cH-45">
          <mxGeometry relative="1" as="geometry">
            <mxPoint x="522" y="366" as="targetPoint" />
            <Array as="points">
              <mxPoint x="522" y="466" />
              <mxPoint x="522" y="466" />
            </Array>
          </mxGeometry>
        </mxCell>
        <mxCell id="nwfjTRmZR8LuEWLm_6cH-45" value="&lt;font style=&quot;color: rgb(102, 102, 255);&quot;&gt;feedback_imu&lt;/font&gt;" style="ellipse;whiteSpace=wrap;html=1;fillColor=#bac8d3;strokeColor=#23445d;" vertex="1" parent="1">
          <mxGeometry x="442" y="536" width="120" height="40" as="geometry" />
        </mxCell>
        <mxCell id="nwfjTRmZR8LuEWLm_6cH-49" value="&lt;font style=&quot;color: rgb(0, 127, 255);&quot;&gt;scan&lt;/font&gt;" style="ellipse;whiteSpace=wrap;html=1;fillColor=#bac8d3;strokeColor=#23445d;" vertex="1" parent="1">
          <mxGeometry x="532" y="456" width="120" height="40" as="geometry" />
        </mxCell>
        <mxCell id="nwfjTRmZR8LuEWLm_6cH-50" style="edgeStyle=orthogonalEdgeStyle;rounded=0;orthogonalLoop=1;jettySize=auto;html=1;strokeColor=#007FFF;" edge="1" parent="1" source="nwfjTRmZR8LuEWLm_6cH-49">
          <mxGeometry relative="1" as="geometry">
            <mxPoint x="586" y="366" as="targetPoint" />
            <Array as="points">
              <mxPoint x="586" y="366" />
            </Array>
          </mxGeometry>
        </mxCell>
        <mxCell id="nwfjTRmZR8LuEWLm_6cH-59" style="edgeStyle=orthogonalEdgeStyle;rounded=0;orthogonalLoop=1;jettySize=auto;html=1;exitX=0.5;exitY=0;exitDx=0;exitDy=0;strokeColor=#00CCCC;" edge="1" parent="1" source="nwfjTRmZR8LuEWLm_6cH-53">
          <mxGeometry relative="1" as="geometry">
            <mxPoint x="260" y="156" as="targetPoint" />
            <Array as="points">
              <mxPoint x="106" y="226" />
              <mxPoint x="106" y="206" />
              <mxPoint x="260" y="206" />
            </Array>
          </mxGeometry>
        </mxCell>
        <mxCell id="nwfjTRmZR8LuEWLm_6cH-53" value="&lt;font style=&quot;color: rgb(204, 255, 255);&quot;&gt;odom_in_twist&lt;/font&gt;" style="ellipse;whiteSpace=wrap;html=1;fillColor=#bac8d3;strokeColor=#23445d;" vertex="1" parent="1">
          <mxGeometry x="26" y="226" width="150" height="40" as="geometry" />
        </mxCell>
        <mxCell id="nwfjTRmZR8LuEWLm_6cH-54" value="&lt;font style=&quot;color: rgb(102, 102, 255);&quot;&gt;odom_in_imu&lt;/font&gt;" style="ellipse;whiteSpace=wrap;html=1;fillColor=#bac8d3;strokeColor=#23445d;" vertex="1" parent="1">
          <mxGeometry x="192" y="226" width="150" height="40" as="geometry" />
        </mxCell>
        <mxCell id="nwfjTRmZR8LuEWLm_6cH-56" style="edgeStyle=orthogonalEdgeStyle;rounded=0;orthogonalLoop=1;jettySize=auto;html=1;strokeColor=#6666FF;" edge="1" parent="1" source="nwfjTRmZR8LuEWLm_6cH-6">
          <mxGeometry relative="1" as="geometry">
            <mxPoint x="270" y="266" as="targetPoint" />
            <Array as="points">
              <mxPoint x="481" y="286" />
              <mxPoint x="270" y="286" />
              <mxPoint x="270" y="266" />
            </Array>
          </mxGeometry>
        </mxCell>
        <mxCell id="nwfjTRmZR8LuEWLm_6cH-58" value="rviz2" style="rounded=1;whiteSpace=wrap;html=1;fillColor=#fad7ac;strokeColor=#b46504;" vertex="1" parent="1">
          <mxGeometry x="356" y="96" width="120" height="60" as="geometry" />
        </mxCell>
        <mxCell id="nwfjTRmZR8LuEWLm_6cH-60" style="edgeStyle=orthogonalEdgeStyle;rounded=0;orthogonalLoop=1;jettySize=auto;html=1;strokeColor=#6666FF;" edge="1" parent="1" source="nwfjTRmZR8LuEWLm_6cH-54">
          <mxGeometry relative="1" as="geometry">
            <mxPoint x="270" y="156" as="targetPoint" />
            <Array as="points">
              <mxPoint x="270" y="156" />
            </Array>
          </mxGeometry>
        </mxCell>
        <mxCell id="nwfjTRmZR8LuEWLm_6cH-63" style="edgeStyle=orthogonalEdgeStyle;rounded=0;orthogonalLoop=1;jettySize=auto;html=1;exitX=0.605;exitY=0.012;exitDx=0;exitDy=0;exitPerimeter=0;strokeColor=#66CC00;" edge="1" parent="1" source="nwfjTRmZR8LuEWLm_6cH-61">
          <mxGeometry relative="1" as="geometry">
            <mxPoint x="430" y="156" as="targetPoint" />
            <Array as="points">
              <mxPoint x="430" y="227" />
              <mxPoint x="430" y="156" />
            </Array>
          </mxGeometry>
        </mxCell>
        <mxCell id="nwfjTRmZR8LuEWLm_6cH-65" style="edgeStyle=orthogonalEdgeStyle;rounded=0;orthogonalLoop=1;jettySize=auto;html=1;strokeColor=#66CC00;" edge="1" parent="1" source="nwfjTRmZR8LuEWLm_6cH-61">
          <mxGeometry relative="1" as="geometry">
            <mxPoint x="586" y="306" as="targetPoint" />
            <Array as="points">
              <mxPoint x="431" y="276" />
              <mxPoint x="586" y="276" />
              <mxPoint x="586" y="306" />
            </Array>
          </mxGeometry>
        </mxCell>
        <mxCell id="nwfjTRmZR8LuEWLm_6cH-61" value="&lt;font style=&quot;color: rgb(153, 255, 51);&quot;&gt;odom_output&lt;/font&gt;" style="ellipse;whiteSpace=wrap;html=1;fillColor=#bac8d3;strokeColor=#23445d;" vertex="1" parent="1">
          <mxGeometry x="356" y="226" width="150" height="40" as="geometry" />
        </mxCell>
        <mxCell id="nwfjTRmZR8LuEWLm_6cH-64" style="edgeStyle=orthogonalEdgeStyle;rounded=0;orthogonalLoop=1;jettySize=auto;html=1;exitX=0.592;exitY=-0.006;exitDx=0;exitDy=0;exitPerimeter=0;strokeColor=#00CCCC;" edge="1" parent="1" source="nwfjTRmZR8LuEWLm_6cH-4">
          <mxGeometry relative="1" as="geometry">
            <mxPoint x="100.75000000000011" y="306" as="sourcePoint" />
            <mxPoint x="106" y="266" as="targetPoint" />
            <Array as="points">
              <mxPoint x="106" y="306" />
              <mxPoint x="106" y="266" />
            </Array>
          </mxGeometry>
        </mxCell>
        <mxCell id="nwfjTRmZR8LuEWLm_6cH-67" value="&lt;font style=&quot;color: rgb(0, 76, 153);&quot;&gt;processed_pointcloud&lt;/font&gt;" style="ellipse;whiteSpace=wrap;html=1;fillColor=#bac8d3;strokeColor=#23445d;" vertex="1" parent="1">
          <mxGeometry x="517" y="226" width="150" height="40" as="geometry" />
        </mxCell>
        <mxCell id="nwfjTRmZR8LuEWLm_6cH-68" style="edgeStyle=orthogonalEdgeStyle;rounded=0;orthogonalLoop=1;jettySize=auto;html=1;strokeColor=#003366;" edge="1" parent="1" source="nwfjTRmZR8LuEWLm_6cH-8">
          <mxGeometry relative="1" as="geometry">
            <mxPoint x="596" y="266" as="targetPoint" />
            <Array as="points">
              <mxPoint x="596" y="286" />
            </Array>
          </mxGeometry>
        </mxCell>
        <mxCell id="nwfjTRmZR8LuEWLm_6cH-69" style="edgeStyle=orthogonalEdgeStyle;rounded=0;orthogonalLoop=1;jettySize=auto;html=1;strokeColor=#003366;" edge="1" parent="1" source="nwfjTRmZR8LuEWLm_6cH-67">
          <mxGeometry relative="1" as="geometry">
            <mxPoint x="440" y="156" as="targetPoint" />
            <Array as="points">
              <mxPoint x="600" y="216" />
              <mxPoint x="440" y="216" />
            </Array>
          </mxGeometry>
        </mxCell>
        <mxCell id="nwfjTRmZR8LuEWLm_6cH-73" style="edgeStyle=orthogonalEdgeStyle;rounded=0;orthogonalLoop=1;jettySize=auto;html=1;strokeColor=#FF66B3;" edge="1" parent="1" source="nwfjTRmZR8LuEWLm_6cH-42">
          <mxGeometry relative="1" as="geometry">
            <mxPoint x="226" y="696" as="targetPoint" />
            <Array as="points">
              <mxPoint x="122" y="696" />
              <mxPoint x="196" y="696" />
            </Array>
          </mxGeometry>
        </mxCell>
        <mxCell id="nwfjTRmZR8LuEWLm_6cH-74" style="edgeStyle=orthogonalEdgeStyle;rounded=0;orthogonalLoop=1;jettySize=auto;html=1;exitX=0.25;exitY=1;exitDx=0;exitDy=0;entryX=0.383;entryY=0.026;entryDx=0;entryDy=0;entryPerimeter=0;strokeColor=#FF66B3;" edge="1" parent="1" source="nwfjTRmZR8LuEWLm_6cH-5" target="nwfjTRmZR8LuEWLm_6cH-42">
          <mxGeometry relative="1" as="geometry">
            <Array as="points">
              <mxPoint x="191" y="506" />
              <mxPoint x="108" y="506" />
            </Array>
          </mxGeometry>
        </mxCell>
        <mxCell id="nwfjTRmZR8LuEWLm_6cH-76" style="edgeStyle=orthogonalEdgeStyle;rounded=0;orthogonalLoop=1;jettySize=auto;html=1;entryX=0.533;entryY=-0.001;entryDx=0;entryDy=0;entryPerimeter=0;strokeColor=#4D9900;" edge="1" parent="1" source="nwfjTRmZR8LuEWLm_6cH-5" target="nwfjTRmZR8LuEWLm_6cH-36">
          <mxGeometry relative="1" as="geometry">
            <mxPoint x="256" y="574" as="targetPoint" />
            <Array as="points">
              <mxPoint x="216" y="446" />
              <mxPoint x="316" y="446" />
              <mxPoint x="316" y="516" />
              <mxPoint x="256" y="516" />
            </Array>
          </mxGeometry>
        </mxCell>
        <mxCell id="nwfjTRmZR8LuEWLm_6cH-78" value="robot_map" style="rounded=1;whiteSpace=wrap;html=1;fillColor=#b0e3e6;strokeColor=#0e8088;" vertex="1" parent="1">
          <mxGeometry x="686" y="306" width="120" height="60" as="geometry" />
        </mxCell>
        <mxCell id="nwfjTRmZR8LuEWLm_6cH-79" value="&lt;font style=&quot;color: rgb(204, 0, 0);&quot;&gt;robot_2d_map&lt;/font&gt;" style="ellipse;whiteSpace=wrap;html=1;fillColor=#bac8d3;strokeColor=#23445d;" vertex="1" parent="1">
          <mxGeometry x="616" y="186" width="150" height="40" as="geometry" />
        </mxCell>
        <mxCell id="nwfjTRmZR8LuEWLm_6cH-80" style="edgeStyle=orthogonalEdgeStyle;rounded=0;orthogonalLoop=1;jettySize=auto;html=1;entryX=0.83;entryY=0.882;entryDx=0;entryDy=0;entryPerimeter=0;strokeColor=#CC0000;" edge="1" parent="1" target="nwfjTRmZR8LuEWLm_6cH-79">
          <mxGeometry relative="1" as="geometry">
            <mxPoint x="739.9988679245284" y="306" as="sourcePoint" />
            <mxPoint x="740.78" y="218.72000000000003" as="targetPoint" />
          </mxGeometry>
        </mxCell>
        <mxCell id="nwfjTRmZR8LuEWLm_6cH-81" style="edgeStyle=orthogonalEdgeStyle;rounded=0;orthogonalLoop=1;jettySize=auto;html=1;exitX=0;exitY=0.5;exitDx=0;exitDy=0;strokeColor=#CC0000;" edge="1" parent="1" source="nwfjTRmZR8LuEWLm_6cH-79">
          <mxGeometry relative="1" as="geometry">
            <mxPoint x="450" y="156" as="targetPoint" />
            <Array as="points">
              <mxPoint x="450" y="206" />
            </Array>
          </mxGeometry>
        </mxCell>
        <mxCell id="nwfjTRmZR8LuEWLm_6cH-82" style="edgeStyle=orthogonalEdgeStyle;rounded=0;orthogonalLoop=1;jettySize=auto;html=1;exitX=0.82;exitY=0.862;exitDx=0;exitDy=0;exitPerimeter=0;strokeColor=#003366;" edge="1" parent="1" source="nwfjTRmZR8LuEWLm_6cH-67">
          <mxGeometry relative="1" as="geometry">
            <mxPoint x="730" y="306" as="targetPoint" />
            <Array as="points">
              <mxPoint x="640" y="276" />
              <mxPoint x="730" y="276" />
            </Array>
          </mxGeometry>
        </mxCell>
        <mxCell id="nwfjTRmZR8LuEWLm_6cH-83" style="edgeStyle=orthogonalEdgeStyle;rounded=0;orthogonalLoop=1;jettySize=auto;html=1;exitX=0.889;exitY=0.816;exitDx=0;exitDy=0;exitPerimeter=0;strokeColor=#66CC00;" edge="1" parent="1" source="nwfjTRmZR8LuEWLm_6cH-61">
          <mxGeometry relative="1" as="geometry">
            <mxPoint x="486" y="260.79999999999995" as="sourcePoint" />
            <mxPoint x="720" y="306" as="targetPoint" />
            <Array as="points">
              <mxPoint x="489" y="261" />
              <mxPoint x="490" y="261" />
              <mxPoint x="490" y="286" />
              <mxPoint x="720" y="286" />
              <mxPoint x="720" y="306" />
            </Array>
          </mxGeometry>
        </mxCell>
        <mxCell id="nwfjTRmZR8LuEWLm_6cH-85" value="Display" style="rounded=1;whiteSpace=wrap;html=1;fillColor=#fad9d5;strokeColor=#ae4132;" vertex="1" parent="1">
          <mxGeometry x="496" y="106" width="74" height="40" as="geometry" />
        </mxCell>
        <mxCell id="nwfjTRmZR8LuEWLm_6cH-86" value="Computer" style="rounded=1;whiteSpace=wrap;html=1;fillColor=#fad9d5;strokeColor=#ae4132;" vertex="1" parent="1">
          <mxGeometry x="693.5" y="386" width="105" height="40" as="geometry" />
        </mxCell>
        <mxCell id="nwfjTRmZR8LuEWLm_6cH-87" value="Robot&amp;nbsp;" style="rounded=1;whiteSpace=wrap;html=1;fillColor=#fad9d5;strokeColor=#ae4132;" vertex="1" parent="1">
          <mxGeometry x="624" y="666" width="76" height="40" as="geometry" />
        </mxCell>
        <mxCell id="nwfjTRmZR8LuEWLm_6cH-88" value="" style="rounded=1;whiteSpace=wrap;html=1;fillColor=#bac8d3;strokeColor=#23445d;" vertex="1" parent="1">
          <mxGeometry x="689" y="461" width="124" height="190" as="geometry" />
        </mxCell>
        <mxCell id="nwfjTRmZR8LuEWLm_6cH-90" value="" style="ellipse;whiteSpace=wrap;html=1;aspect=fixed;strokeColor=none;fillColor=#CCFFFF;" vertex="1" parent="1">
          <mxGeometry x="701" y="471" width="15.5" height="15.5" as="geometry" />
        </mxCell>
        <mxCell id="nwfjTRmZR8LuEWLm_6cH-91" value="&lt;font style=&quot;color: rgb(204, 255, 255);&quot;&gt;TwistStamped&lt;/font&gt;" style="text;html=1;align=center;verticalAlign=middle;whiteSpace=wrap;rounded=0;" vertex="1" parent="1">
          <mxGeometry x="714.5" y="463.75" width="96.5" height="30" as="geometry" />
        </mxCell>
        <mxCell id="nwfjTRmZR8LuEWLm_6cH-92" value="" style="ellipse;whiteSpace=wrap;html=1;aspect=fixed;strokeColor=none;fillColor=#009999;" vertex="1" parent="1">
          <mxGeometry x="701" y="487.75" width="15.5" height="15.5" as="geometry" />
        </mxCell>
        <mxCell id="nwfjTRmZR8LuEWLm_6cH-93" value="&lt;font style=&quot;color: rgb(0, 153, 153);&quot;&gt;Twist&lt;/font&gt;" style="text;html=1;align=center;verticalAlign=middle;whiteSpace=wrap;rounded=0;" vertex="1" parent="1">
          <mxGeometry x="716.5" y="480.5" width="46.5" height="30" as="geometry" />
        </mxCell>
        <mxCell id="nwfjTRmZR8LuEWLm_6cH-94" value="" style="ellipse;whiteSpace=wrap;html=1;aspect=fixed;strokeColor=none;fillColor=#FF66B3;" vertex="1" parent="1">
          <mxGeometry x="701" y="504.25" width="15.5" height="15.5" as="geometry" />
        </mxCell>
        <mxCell id="nwfjTRmZR8LuEWLm_6cH-95" value="&lt;font style=&quot;color: rgb(255, 102, 179);&quot;&gt;Int16&lt;/font&gt;" style="text;html=1;align=center;verticalAlign=middle;whiteSpace=wrap;rounded=0;" vertex="1" parent="1">
          <mxGeometry x="717.5" y="498" width="46.5" height="30" as="geometry" />
        </mxCell>
        <mxCell id="nwfjTRmZR8LuEWLm_6cH-96" value="" style="ellipse;whiteSpace=wrap;html=1;aspect=fixed;strokeColor=none;fillColor=#6666FF;" vertex="1" parent="1">
          <mxGeometry x="701" y="538.25" width="15.5" height="15.5" as="geometry" />
        </mxCell>
        <mxCell id="nwfjTRmZR8LuEWLm_6cH-97" value="&lt;font style=&quot;color: rgb(102, 102, 255);&quot;&gt;Imu&lt;/font&gt;" style="text;html=1;align=center;verticalAlign=middle;whiteSpace=wrap;rounded=0;" vertex="1" parent="1">
          <mxGeometry x="719.5" y="531" width="35.5" height="30" as="geometry" />
        </mxCell>
        <mxCell id="nwfjTRmZR8LuEWLm_6cH-98" value="" style="ellipse;whiteSpace=wrap;html=1;aspect=fixed;strokeColor=none;fillColor=#4D9900;" vertex="1" parent="1">
          <mxGeometry x="701" y="521.25" width="15.5" height="15.5" as="geometry" />
        </mxCell>
        <mxCell id="nwfjTRmZR8LuEWLm_6cH-99" value="&lt;font style=&quot;color: rgb(77, 153, 0);&quot;&gt;Vector3&lt;/font&gt;" style="text;html=1;align=center;verticalAlign=middle;whiteSpace=wrap;rounded=0;" vertex="1" parent="1">
          <mxGeometry x="716.5" y="514" width="58.5" height="30" as="geometry" />
        </mxCell>
        <mxCell id="nwfjTRmZR8LuEWLm_6cH-100" value="" style="ellipse;whiteSpace=wrap;html=1;aspect=fixed;strokeColor=none;fillColor=#007FFF;" vertex="1" parent="1">
          <mxGeometry x="701" y="555.25" width="15.5" height="15.5" as="geometry" />
        </mxCell>
        <mxCell id="nwfjTRmZR8LuEWLm_6cH-101" value="&lt;font style=&quot;color: rgb(0, 127, 255);&quot;&gt;LaserScan&lt;/font&gt;" style="text;html=1;align=center;verticalAlign=middle;whiteSpace=wrap;rounded=0;" vertex="1" parent="1">
          <mxGeometry x="715.5" y="548" width="76.5" height="30" as="geometry" />
        </mxCell>
        <mxCell id="nwfjTRmZR8LuEWLm_6cH-102" value="" style="ellipse;whiteSpace=wrap;html=1;aspect=fixed;strokeColor=none;fillColor=#80FF00;" vertex="1" parent="1">
          <mxGeometry x="701" y="572.25" width="15.5" height="15.5" as="geometry" />
        </mxCell>
        <mxCell id="nwfjTRmZR8LuEWLm_6cH-103" value="&lt;font style=&quot;color: rgb(128, 255, 0);&quot;&gt;Odometry&lt;/font&gt;" style="text;html=1;align=center;verticalAlign=middle;whiteSpace=wrap;rounded=0;" vertex="1" parent="1">
          <mxGeometry x="713" y="565" width="76" height="30" as="geometry" />
        </mxCell>
        <mxCell id="nwfjTRmZR8LuEWLm_6cH-104" value="" style="ellipse;whiteSpace=wrap;html=1;aspect=fixed;strokeColor=none;fillColor=#003366;" vertex="1" parent="1">
          <mxGeometry x="701" y="589.25" width="15.5" height="15.5" as="geometry" />
        </mxCell>
        <mxCell id="nwfjTRmZR8LuEWLm_6cH-105" value="&lt;font style=&quot;color: rgb(0, 51, 102);&quot;&gt;PointCloud2&lt;/font&gt;" style="text;html=1;align=center;verticalAlign=middle;whiteSpace=wrap;rounded=0;" vertex="1" parent="1">
          <mxGeometry x="716" y="582" width="83" height="30" as="geometry" />
        </mxCell>
        <mxCell id="nwfjTRmZR8LuEWLm_6cH-106" value="" style="ellipse;whiteSpace=wrap;html=1;aspect=fixed;strokeColor=none;fillColor=#CC0000;" vertex="1" parent="1">
          <mxGeometry x="701" y="606.25" width="15.5" height="15.5" as="geometry" />
        </mxCell>
        <mxCell id="nwfjTRmZR8LuEWLm_6cH-107" value="&lt;font style=&quot;color: rgb(204, 0, 0);&quot;&gt;Map&lt;/font&gt;" style="text;html=1;align=center;verticalAlign=middle;whiteSpace=wrap;rounded=0;" vertex="1" parent="1">
          <mxGeometry x="717" y="599" width="37" height="30" as="geometry" />
        </mxCell>
        <mxCell id="nwfjTRmZR8LuEWLm_6cH-108" value="" style="ellipse;whiteSpace=wrap;html=1;aspect=fixed;strokeColor=none;fillColor=#FFE6CC;" vertex="1" parent="1">
          <mxGeometry x="701" y="623.25" width="15.5" height="15.5" as="geometry" />
        </mxCell>
        <mxCell id="nwfjTRmZR8LuEWLm_6cH-109" value="&lt;font style=&quot;color: rgb(255, 230, 204);&quot;&gt;Joy&lt;/font&gt;" style="text;html=1;align=center;verticalAlign=middle;whiteSpace=wrap;rounded=0;" vertex="1" parent="1">
          <mxGeometry x="717" y="616" width="37" height="30" as="geometry" />
        </mxCell>
        <mxCell id="nwfjTRmZR8LuEWLm_6cH-110" value="&lt;b&gt;Hardware Involved&amp;nbsp;&lt;/b&gt;" style="text;html=1;align=center;verticalAlign=middle;whiteSpace=wrap;rounded=0;" vertex="1" parent="1">
          <mxGeometry x="596" y="66" width="120" height="30" as="geometry" />
        </mxCell>
        <mxCell id="nwfjTRmZR8LuEWLm_6cH-111" value="No Hardware Involved" style="text;whiteSpace=wrap;html=1;" vertex="1" parent="1">
          <mxGeometry x="600" y="85" width="140" height="30" as="geometry" />
        </mxCell>
        <mxCell id="nwfjTRmZR8LuEWLm_6cH-113" value="Normal Nodes" style="rounded=1;whiteSpace=wrap;html=1;fillColor=#b0e3e6;strokeColor=#0e8088;" vertex="1" parent="1">
          <mxGeometry x="600" y="115" width="110" height="30" as="geometry" />
        </mxCell>
        <mxCell id="nwfjTRmZR8LuEWLm_6cH-114" value="Nodes Provided by Hardware supplier" style="rounded=1;whiteSpace=wrap;html=1;fillColor=#d0cee2;strokeColor=#56517e;" vertex="1" parent="1">
          <mxGeometry x="600" y="146" width="216" height="30" as="geometry" />
        </mxCell>
        <mxCell id="nwfjTRmZR8LuEWLm_6cH-115" value="User Interface" style="rounded=1;whiteSpace=wrap;html=1;fillColor=#fad7ac;strokeColor=#b46504;" vertex="1" parent="1">
          <mxGeometry x="710" y="115" width="106" height="30" as="geometry" />
        </mxCell>
        <mxCell id="nwfjTRmZR8LuEWLm_6cH-121" value="" style="edgeStyle=orthogonalEdgeStyle;rounded=0;orthogonalLoop=1;jettySize=auto;html=1;" edge="1" parent="1" source="nwfjTRmZR8LuEWLm_6cH-117" target="nwfjTRmZR8LuEWLm_6cH-120">
          <mxGeometry relative="1" as="geometry" />
        </mxCell>
        <mxCell id="nwfjTRmZR8LuEWLm_6cH-117" value="Publisher" style="rounded=1;whiteSpace=wrap;html=1;fillColor=#b0e3e6;strokeColor=#0e8088;" vertex="1" parent="1">
          <mxGeometry x="606" y="525.75" width="64" height="20" as="geometry" />
        </mxCell>
        <mxCell id="nwfjTRmZR8LuEWLm_6cH-118" value="subscriber" style="rounded=1;whiteSpace=wrap;html=1;fillColor=#b0e3e6;strokeColor=#0e8088;" vertex="1" parent="1">
          <mxGeometry x="606" y="601" width="64" height="20" as="geometry" />
        </mxCell>
        <mxCell id="nwfjTRmZR8LuEWLm_6cH-122" value="" style="edgeStyle=orthogonalEdgeStyle;rounded=0;orthogonalLoop=1;jettySize=auto;html=1;" edge="1" parent="1" source="nwfjTRmZR8LuEWLm_6cH-120" target="nwfjTRmZR8LuEWLm_6cH-118">
          <mxGeometry relative="1" as="geometry">
            <Array as="points">
              <mxPoint x="638" y="601" />
              <mxPoint x="638" y="601" />
            </Array>
          </mxGeometry>
        </mxCell>
        <mxCell id="nwfjTRmZR8LuEWLm_6cH-120" value="Topic" style="ellipse;whiteSpace=wrap;html=1;fillColor=#bac8d3;strokeColor=#23445d;" vertex="1" parent="1">
          <mxGeometry x="613" y="558" width="50" height="29" as="geometry" />
        </mxCell>
        <mxCell id="nwfjTRmZR8LuEWLm_6cH-123" value="&lt;font style=&quot;font-size: 18px;&quot;&gt;Relationship between Nodes and Topics&amp;nbsp;&lt;/font&gt;" style="text;html=1;align=center;verticalAlign=middle;whiteSpace=wrap;rounded=0;" vertex="1" parent="1">
          <mxGeometry x="16" y="106" width="182" height="30" as="geometry" />
        </mxCell>
        <mxCell id="nwfjTRmZR8LuEWLm_6cH-126" value="servo_group" style="swimlane;fontStyle=0;childLayout=stackLayout;horizontal=1;startSize=26;fillColor=#f9f7ed;horizontalStack=0;resizeParent=1;resizeParentMax=0;resizeLast=0;collapsible=1;marginBottom=0;whiteSpace=wrap;html=1;strokeColor=#36393d;" vertex="1" parent="1">
          <mxGeometry x="195.5" y="1006" width="140" height="130" as="geometry" />
        </mxCell>
        <mxCell id="nwfjTRmZR8LuEWLm_6cH-127" value="set_mode()" style="text;strokeColor=#36393d;fillColor=#f9f7ed;align=left;verticalAlign=top;spacingLeft=4;spacingRight=4;overflow=hidden;rotatable=0;points=[[0,0.5],[1,0.5]];portConstraint=eastwest;whiteSpace=wrap;html=1;" vertex="1" parent="nwfjTRmZR8LuEWLm_6cH-126">
          <mxGeometry y="26" width="140" height="26" as="geometry" />
        </mxCell>
        <mxCell id="nwfjTRmZR8LuEWLm_6cH-131" value="set_goal()" style="text;strokeColor=#36393d;fillColor=#f9f7ed;align=left;verticalAlign=top;spacingLeft=4;spacingRight=4;overflow=hidden;rotatable=0;points=[[0,0.5],[1,0.5]];portConstraint=eastwest;whiteSpace=wrap;html=1;" vertex="1" parent="nwfjTRmZR8LuEWLm_6cH-126">
          <mxGeometry y="52" width="140" height="26" as="geometry" />
        </mxCell>
        <mxCell id="nwfjTRmZR8LuEWLm_6cH-128" value="get_mode()" style="text;strokeColor=#36393d;fillColor=#f9f7ed;align=left;verticalAlign=top;spacingLeft=4;spacingRight=4;overflow=hidden;rotatable=0;points=[[0,0.5],[1,0.5]];portConstraint=eastwest;whiteSpace=wrap;html=1;" vertex="1" parent="nwfjTRmZR8LuEWLm_6cH-126">
          <mxGeometry y="78" width="140" height="26" as="geometry" />
        </mxCell>
        <mxCell id="nwfjTRmZR8LuEWLm_6cH-129" value="get_feedback()&lt;div&gt;&lt;br&gt;&lt;/div&gt;" style="text;strokeColor=#36393d;fillColor=#f9f7ed;align=left;verticalAlign=top;spacingLeft=4;spacingRight=4;overflow=hidden;rotatable=0;points=[[0,0.5],[1,0.5]];portConstraint=eastwest;whiteSpace=wrap;html=1;" vertex="1" parent="nwfjTRmZR8LuEWLm_6cH-126">
          <mxGeometry y="104" width="140" height="26" as="geometry" />
        </mxCell>
        <mxCell id="nwfjTRmZR8LuEWLm_6cH-161" style="edgeStyle=orthogonalEdgeStyle;rounded=0;orthogonalLoop=1;jettySize=auto;html=1;endArrow=diamondThin;endFill=1;strokeColor=#CC6600;" edge="1" parent="1" source="nwfjTRmZR8LuEWLm_6cH-132">
          <mxGeometry relative="1" as="geometry">
            <mxPoint x="320" y="716" as="targetPoint" />
            <Array as="points">
              <mxPoint x="476" y="986" />
              <mxPoint x="440" y="986" />
              <mxPoint x="440" y="786" />
              <mxPoint x="320" y="786" />
            </Array>
          </mxGeometry>
        </mxCell>
        <mxCell id="nwfjTRmZR8LuEWLm_6cH-132" value="servo_port_handler" style="swimlane;fontStyle=0;childLayout=stackLayout;horizontal=1;startSize=26;fillColor=#f9f7ed;horizontalStack=0;resizeParent=1;resizeParentMax=0;resizeLast=0;collapsible=1;marginBottom=0;whiteSpace=wrap;html=1;strokeColor=#36393d;" vertex="1" parent="1">
          <mxGeometry x="405.5" y="1006" width="140" height="104" as="geometry" />
        </mxCell>
        <mxCell id="nwfjTRmZR8LuEWLm_6cH-133" value="port_init()" style="text;strokeColor=#36393d;fillColor=#f9f7ed;align=left;verticalAlign=top;spacingLeft=4;spacingRight=4;overflow=hidden;rotatable=0;points=[[0,0.5],[1,0.5]];portConstraint=eastwest;whiteSpace=wrap;html=1;" vertex="1" parent="nwfjTRmZR8LuEWLm_6cH-132">
          <mxGeometry y="26" width="140" height="26" as="geometry" />
        </mxCell>
        <mxCell id="nwfjTRmZR8LuEWLm_6cH-134" value="port_close()" style="text;strokeColor=#36393d;fillColor=#f9f7ed;align=left;verticalAlign=top;spacingLeft=4;spacingRight=4;overflow=hidden;rotatable=0;points=[[0,0.5],[1,0.5]];portConstraint=eastwest;whiteSpace=wrap;html=1;" vertex="1" parent="nwfjTRmZR8LuEWLm_6cH-132">
          <mxGeometry y="52" width="140" height="26" as="geometry" />
        </mxCell>
        <mxCell id="nwfjTRmZR8LuEWLm_6cH-135" value="port_open()" style="text;strokeColor=#36393d;fillColor=#f9f7ed;align=left;verticalAlign=top;spacingLeft=4;spacingRight=4;overflow=hidden;rotatable=0;points=[[0,0.5],[1,0.5]];portConstraint=eastwest;whiteSpace=wrap;html=1;" vertex="1" parent="nwfjTRmZR8LuEWLm_6cH-132">
          <mxGeometry y="78" width="140" height="26" as="geometry" />
        </mxCell>
        <mxCell id="nwfjTRmZR8LuEWLm_6cH-137" value="chassis_4wdiff" style="swimlane;fontStyle=0;childLayout=stackLayout;horizontal=1;startSize=26;fillColor=#f9f7ed;horizontalStack=0;resizeParent=1;resizeParentMax=0;resizeLast=0;collapsible=1;marginBottom=0;whiteSpace=wrap;html=1;strokeColor=#36393d;" vertex="1" parent="1">
          <mxGeometry x="106.5" y="832" width="140" height="156" as="geometry" />
        </mxCell>
        <mxCell id="nwfjTRmZR8LuEWLm_6cH-138" value="set_speed_4wdiff()" style="text;strokeColor=#36393d;fillColor=#f9f7ed;align=left;verticalAlign=top;spacingLeft=4;spacingRight=4;overflow=hidden;rotatable=0;points=[[0,0.5],[1,0.5]];portConstraint=eastwest;whiteSpace=wrap;html=1;" vertex="1" parent="nwfjTRmZR8LuEWLm_6cH-137">
          <mxGeometry y="26" width="140" height="26" as="geometry" />
        </mxCell>
        <mxCell id="nwfjTRmZR8LuEWLm_6cH-139" value="read_feedback_4wdiff()" style="text;strokeColor=#36393d;fillColor=#f9f7ed;align=left;verticalAlign=top;spacingLeft=4;spacingRight=4;overflow=hidden;rotatable=0;points=[[0,0.5],[1,0.5]];portConstraint=eastwest;whiteSpace=wrap;html=1;" vertex="1" parent="nwfjTRmZR8LuEWLm_6cH-137">
          <mxGeometry y="52" width="140" height="26" as="geometry" />
        </mxCell>
        <mxCell id="nwfjTRmZR8LuEWLm_6cH-140" value="enable_torque()" style="text;strokeColor=#36393d;fillColor=#f9f7ed;align=left;verticalAlign=top;spacingLeft=4;spacingRight=4;overflow=hidden;rotatable=0;points=[[0,0.5],[1,0.5]];portConstraint=eastwest;whiteSpace=wrap;html=1;" vertex="1" parent="nwfjTRmZR8LuEWLm_6cH-137">
          <mxGeometry y="78" width="140" height="26" as="geometry" />
        </mxCell>
        <mxCell id="nwfjTRmZR8LuEWLm_6cH-141" value="disable_torque()" style="text;strokeColor=#36393d;fillColor=#f9f7ed;align=left;verticalAlign=top;spacingLeft=4;spacingRight=4;overflow=hidden;rotatable=0;points=[[0,0.5],[1,0.5]];portConstraint=eastwest;whiteSpace=wrap;html=1;" vertex="1" parent="nwfjTRmZR8LuEWLm_6cH-137">
          <mxGeometry y="104" width="140" height="26" as="geometry" />
        </mxCell>
        <mxCell id="nwfjTRmZR8LuEWLm_6cH-142" value="wheel_zeroing()" style="text;strokeColor=#36393d;fillColor=#f9f7ed;align=left;verticalAlign=top;spacingLeft=4;spacingRight=4;overflow=hidden;rotatable=0;points=[[0,0.5],[1,0.5]];portConstraint=eastwest;whiteSpace=wrap;html=1;" vertex="1" parent="nwfjTRmZR8LuEWLm_6cH-137">
          <mxGeometry y="130" width="140" height="26" as="geometry" />
        </mxCell>
        <mxCell id="nwfjTRmZR8LuEWLm_6cH-143" value="gimbal_yaw_pitch" style="swimlane;fontStyle=0;childLayout=stackLayout;horizontal=1;startSize=26;fillColor=#f9f7ed;horizontalStack=0;resizeParent=1;resizeParentMax=0;resizeLast=0;collapsible=1;marginBottom=0;whiteSpace=wrap;html=1;strokeColor=#36393d;" vertex="1" parent="1">
          <mxGeometry x="277.5" y="806" width="140" height="182" as="geometry" />
        </mxCell>
        <mxCell id="nwfjTRmZR8LuEWLm_6cH-144" value="set_gimbal_position()" style="text;strokeColor=#36393d;fillColor=#f9f7ed;align=left;verticalAlign=top;spacingLeft=4;spacingRight=4;overflow=hidden;rotatable=0;points=[[0,0.5],[1,0.5]];portConstraint=eastwest;whiteSpace=wrap;html=1;" vertex="1" parent="nwfjTRmZR8LuEWLm_6cH-143">
          <mxGeometry y="26" width="140" height="26" as="geometry" />
        </mxCell>
        <mxCell id="nwfjTRmZR8LuEWLm_6cH-145" value="read_feedback_gimbal()" style="text;strokeColor=#36393d;fillColor=#f9f7ed;align=left;verticalAlign=top;spacingLeft=4;spacingRight=4;overflow=hidden;rotatable=0;points=[[0,0.5],[1,0.5]];portConstraint=eastwest;whiteSpace=wrap;html=1;" vertex="1" parent="nwfjTRmZR8LuEWLm_6cH-143">
          <mxGeometry y="52" width="140" height="26" as="geometry" />
        </mxCell>
        <mxCell id="nwfjTRmZR8LuEWLm_6cH-146" value="enable_torque()" style="text;strokeColor=#36393d;fillColor=#f9f7ed;align=left;verticalAlign=top;spacingLeft=4;spacingRight=4;overflow=hidden;rotatable=0;points=[[0,0.5],[1,0.5]];portConstraint=eastwest;whiteSpace=wrap;html=1;" vertex="1" parent="nwfjTRmZR8LuEWLm_6cH-143">
          <mxGeometry y="78" width="140" height="26" as="geometry" />
        </mxCell>
        <mxCell id="nwfjTRmZR8LuEWLm_6cH-147" value="disable_torque()" style="text;strokeColor=#36393d;fillColor=#f9f7ed;align=left;verticalAlign=top;spacingLeft=4;spacingRight=4;overflow=hidden;rotatable=0;points=[[0,0.5],[1,0.5]];portConstraint=eastwest;whiteSpace=wrap;html=1;" vertex="1" parent="nwfjTRmZR8LuEWLm_6cH-143">
          <mxGeometry y="104" width="140" height="26" as="geometry" />
        </mxCell>
        <mxCell id="nwfjTRmZR8LuEWLm_6cH-148" value="gimbal_zeroing()" style="text;strokeColor=#36393d;fillColor=#f9f7ed;align=left;verticalAlign=top;spacingLeft=4;spacingRight=4;overflow=hidden;rotatable=0;points=[[0,0.5],[1,0.5]];portConstraint=eastwest;whiteSpace=wrap;html=1;" vertex="1" parent="nwfjTRmZR8LuEWLm_6cH-143">
          <mxGeometry y="130" width="140" height="26" as="geometry" />
        </mxCell>
        <mxCell id="nwfjTRmZR8LuEWLm_6cH-150" value="gimbal_look_down()" style="text;strokeColor=#36393d;fillColor=#f9f7ed;align=left;verticalAlign=top;spacingLeft=4;spacingRight=4;overflow=hidden;rotatable=0;points=[[0,0.5],[1,0.5]];portConstraint=eastwest;whiteSpace=wrap;html=1;" vertex="1" parent="nwfjTRmZR8LuEWLm_6cH-143">
          <mxGeometry y="156" width="140" height="26" as="geometry" />
        </mxCell>
        <mxCell id="nwfjTRmZR8LuEWLm_6cH-166" style="edgeStyle=orthogonalEdgeStyle;rounded=0;orthogonalLoop=1;jettySize=auto;html=1;endArrow=diamondThin;endFill=1;strokeColor=#CC6600;" edge="1" parent="1" source="nwfjTRmZR8LuEWLm_6cH-151" target="nwfjTRmZR8LuEWLm_6cH-2">
          <mxGeometry relative="1" as="geometry">
            <Array as="points">
              <mxPoint x="526" y="776" />
              <mxPoint x="416" y="776" />
            </Array>
          </mxGeometry>
        </mxCell>
        <mxCell id="nwfjTRmZR8LuEWLm_6cH-151" value="imu_icm20948_qwiic" style="swimlane;fontStyle=0;childLayout=stackLayout;horizontal=1;startSize=26;fillColor=#f9f7ed;horizontalStack=0;resizeParent=1;resizeParentMax=0;resizeLast=0;collapsible=1;marginBottom=0;whiteSpace=wrap;html=1;strokeColor=#36393d;" vertex="1" parent="1">
          <mxGeometry x="456" y="866" width="140" height="104" as="geometry" />
        </mxCell>
        <mxCell id="nwfjTRmZR8LuEWLm_6cH-152" value="read_imu()" style="text;strokeColor=#36393d;fillColor=#f9f7ed;align=left;verticalAlign=top;spacingLeft=4;spacingRight=4;overflow=hidden;rotatable=0;points=[[0,0.5],[1,0.5]];portConstraint=eastwest;whiteSpace=wrap;html=1;" vertex="1" parent="nwfjTRmZR8LuEWLm_6cH-151">
          <mxGeometry y="26" width="140" height="26" as="geometry" />
        </mxCell>
        <mxCell id="nwfjTRmZR8LuEWLm_6cH-153" value="caliberation()" style="text;strokeColor=#36393d;fillColor=#f9f7ed;align=left;verticalAlign=top;spacingLeft=4;spacingRight=4;overflow=hidden;rotatable=0;points=[[0,0.5],[1,0.5]];portConstraint=eastwest;whiteSpace=wrap;html=1;" vertex="1" parent="nwfjTRmZR8LuEWLm_6cH-151">
          <mxGeometry y="52" width="140" height="26" as="geometry" />
        </mxCell>
        <mxCell id="nwfjTRmZR8LuEWLm_6cH-154" value="set_lowpass_samples()" style="text;strokeColor=#36393d;fillColor=#f9f7ed;align=left;verticalAlign=top;spacingLeft=4;spacingRight=4;overflow=hidden;rotatable=0;points=[[0,0.5],[1,0.5]];portConstraint=eastwest;whiteSpace=wrap;html=1;" vertex="1" parent="nwfjTRmZR8LuEWLm_6cH-151">
          <mxGeometry y="78" width="140" height="26" as="geometry" />
        </mxCell>
        <mxCell id="nwfjTRmZR8LuEWLm_6cH-157" style="edgeStyle=orthogonalEdgeStyle;rounded=0;orthogonalLoop=1;jettySize=auto;html=1;exitX=0;exitY=0.5;exitDx=0;exitDy=0;entryX=0.365;entryY=0.998;entryDx=0;entryDy=0;entryPerimeter=0;endArrow=diamondThin;endFill=1;fillColor=#f9f7ed;strokeColor=#36393d;" edge="1" parent="1" source="nwfjTRmZR8LuEWLm_6cH-126" target="nwfjTRmZR8LuEWLm_6cH-142">
          <mxGeometry relative="1" as="geometry" />
        </mxCell>
        <mxCell id="nwfjTRmZR8LuEWLm_6cH-158" style="edgeStyle=orthogonalEdgeStyle;rounded=0;orthogonalLoop=1;jettySize=auto;html=1;entryX=0.626;entryY=0.97;entryDx=0;entryDy=0;entryPerimeter=0;endArrow=diamondThin;endFill=1;fillColor=#f9f7ed;strokeColor=#36393d;" edge="1" parent="1" source="nwfjTRmZR8LuEWLm_6cH-131" target="nwfjTRmZR8LuEWLm_6cH-150">
          <mxGeometry relative="1" as="geometry" />
        </mxCell>
        <mxCell id="nwfjTRmZR8LuEWLm_6cH-160" style="edgeStyle=orthogonalEdgeStyle;rounded=0;orthogonalLoop=1;jettySize=auto;html=1;entryX=0.533;entryY=1.015;entryDx=0;entryDy=0;entryPerimeter=0;endArrow=none;endFill=0;fillColor=#f9f7ed;strokeColor=#36393d;startArrow=diamondThin;startFill=1;" edge="1" parent="1" source="nwfjTRmZR8LuEWLm_6cH-126" target="nwfjTRmZR8LuEWLm_6cH-135">
          <mxGeometry relative="1" as="geometry">
            <Array as="points">
              <mxPoint x="364.5" y="1086" />
              <mxPoint x="364.5" y="1136" />
              <mxPoint x="480.5" y="1136" />
            </Array>
          </mxGeometry>
        </mxCell>
        <mxCell id="nwfjTRmZR8LuEWLm_6cH-163" style="edgeStyle=orthogonalEdgeStyle;rounded=0;orthogonalLoop=1;jettySize=auto;html=1;entryX=0.702;entryY=0.998;entryDx=0;entryDy=0;entryPerimeter=0;endArrow=diamondThin;endFill=1;strokeColor=#CC6600;" edge="1" parent="1" source="nwfjTRmZR8LuEWLm_6cH-143" target="nwfjTRmZR8LuEWLm_6cH-1">
          <mxGeometry relative="1" as="geometry">
            <Array as="points">
              <mxPoint x="310" y="761" />
              <mxPoint x="310" y="761" />
            </Array>
          </mxGeometry>
        </mxCell>
        <mxCell id="nwfjTRmZR8LuEWLm_6cH-164" style="edgeStyle=orthogonalEdgeStyle;rounded=0;orthogonalLoop=1;jettySize=auto;html=1;entryX=0.609;entryY=0.997;entryDx=0;entryDy=0;entryPerimeter=0;endArrow=diamondThin;endFill=1;strokeColor=#CC6600;" edge="1" parent="1" source="nwfjTRmZR8LuEWLm_6cH-137" target="nwfjTRmZR8LuEWLm_6cH-1">
          <mxGeometry relative="1" as="geometry">
            <Array as="points">
              <mxPoint x="176" y="786" />
              <mxPoint x="299" y="786" />
            </Array>
          </mxGeometry>
        </mxCell>
        <mxCell id="nwfjTRmZR8LuEWLm_6cH-167" value="Camera Streaming" style="html=1;whiteSpace=wrap;fillColor=#f9f7ed;strokeColor=#36393d;" vertex="1" parent="1">
          <mxGeometry x="579" y="1012" width="110" height="50" as="geometry" />
        </mxCell>
        <mxCell id="nwfjTRmZR8LuEWLm_6cH-168" value="&lt;font style=&quot;font-size: 18px;&quot;&gt;hardware drivers independent From ROS 2&lt;/font&gt;" style="text;html=1;align=center;verticalAlign=middle;whiteSpace=wrap;rounded=0;" vertex="1" parent="1">
          <mxGeometry x="566" y="780" width="244.5" height="30" as="geometry" />
        </mxCell>
        <mxCell id="nwfjTRmZR8LuEWLm_6cH-169" value="Flusk Server, does not communicate with ROS2" style="text;html=1;align=center;verticalAlign=middle;whiteSpace=wrap;rounded=0;" vertex="1" parent="1">
          <mxGeometry x="575" y="1080" width="109" height="30" as="geometry" />
        </mxCell>
        <mxCell id="nwfjTRmZR8LuEWLm_6cH-173" value="&lt;font style=&quot;font-size: 28px;&quot;&gt;Software Architecture digram&lt;/font&gt;" style="text;html=1;align=center;verticalAlign=middle;whiteSpace=wrap;rounded=0;" vertex="1" parent="1">
          <mxGeometry x="204" y="20" width="424" height="30" as="geometry" />
        </mxCell>
        <mxCell id="nwfjTRmZR8LuEWLm_6cH-176" value="Topics not communicating with the robot" style="text;html=1;align=center;verticalAlign=middle;whiteSpace=wrap;rounded=0;" vertex="1" parent="1">
          <mxGeometry x="16" y="180" width="224" height="20" as="geometry" />
        </mxCell>
      </root>
    </mxGraphModel>
  </diagram>
</mxfile>
